<?xml version="1.0" standalone="no"?>
<!DOCTYPE svg PUBLIC "-//W3C//DTD SVG 20010904//EN"
 "http://www.w3.org/TR/2001/REC-SVG-20010904/DTD/svg10.dtd">
<svg version="1.0" xmlns="http://www.w3.org/2000/svg"
 width="512.000000pt" height="512.000000pt" viewBox="0 0 512.000000 512.000000"
 preserveAspectRatio="xMidYMid meet">
<metadata>
Created by potrace 1.14, written by Peter Selinger 2001-2017
</metadata>
<g transform="translate(0.000000,512.000000) scale(0.100000,-0.100000)"
fill="#000000" stroke="none">
<path d="M432 4528 l3 -153 153 -3 152 -3 0 156 0 155 -155 0 -156 0 3 -152z"/>
<path d="M1940 4535 c0 -80 0 -148 0 -152 0 -5 69 -8 153 -8 l152 0 3 153 3
152 -156 0 -155 0 0 -145z"/>
<path d="M434 4297 c-2 -7 -3 -78 -2 -157 l3 -145 153 -3 152 -3 0 161 0 160
-150 0 c-114 0 -152 -3 -156 -13z"/>
<path d="M810 4150 l0 -161 153 3 152 3 3 158 3 157 -156 0 -155 0 0 -160z"/>
<path d="M1564 4297 c-2 -7 -3 -78 -2 -157 l3 -145 153 -3 152 -3 0 161 0 160
-150 0 c-114 0 -152 -3 -156 -13z"/>
<path d="M1940 4150 l0 -161 153 3 152 3 0 155 0 155 -152 3 -153 3 0 -161z"/>
<path d="M430 3775 l0 -155 155 0 155 0 0 155 0 155 -155 0 -155 0 0 -155z"/>
<path d="M1187 3923 c-4 -3 -7 -73 -7 -155 l0 -148 160 0 160 0 0 155 0 155
-153 0 c-85 0 -157 -3 -160 -7z"/>
<path d="M1940 3775 l0 -155 155 0 155 0 0 155 0 155 -155 0 -155 0 0 -155z"/>
<path d="M3210 3765 l0 -145 344 0 c265 0 347 -3 353 -12 4 -7 105 -280 224
-605 l217 -593 -757 0 -756 0 -53 143 c-28 78 -52 145 -52 150 0 4 108 7 240
7 l240 0 0 150 0 150 -480 0 -479 0 -3 83 -3 82 -150 0 -150 0 -3 -152 -3
-153 36 0 c33 0 35 -2 35 -35 0 -33 -2 -35 -35 -35 l-35 0 0 -155 0 -155 155
0 155 0 0 110 0 110 79 0 78 0 41 -112 c22 -62 119 -329 216 -593 97 -264 176
-485 176 -493 0 -10 -27 -12 -122 -10 l-123 3 -15 75 c-40 191 -133 369 -267
511 l-63 66 0 132 0 131 -155 0 -155 0 0 -33 c0 -19 -2 -36 -5 -39 -3 -3 -42
6 -87 19 -242 70 -518 47 -744 -62 -234 -113 -436 -327 -524 -558 -54 -139
-72 -237 -72 -387 0 -300 100 -550 301 -750 315 -314 803 -395 1206 -201 294
141 504 413 567 732 l13 64 617 3 618 2 4 -22 c35 -172 92 -314 176 -439 54
-80 186 -212 265 -264 236 -156 523 -216 786 -164 l59 12 0 154 c0 142 -1 154
-17 149 -10 -3 -38 -10 -63 -17 -25 -7 -100 -13 -170 -13 -100 0 -141 4 -205
23 -271 77 -475 293 -531 563 -19 91 -19 234 0 325 36 171 146 342 282 439 34
24 65 44 70 44 5 0 77 -187 159 -416 83 -229 153 -418 157 -420 5 -3 262 82
276 91 1 1 -66 189 -149 419 -83 229 -148 420 -144 424 4 4 53 7 108 6 89 -1
127 -6 210 -30 16 -5 17 7 17 150 l0 154 -27 6 c-72 16 -189 25 -304 26 l-126
0 -228 628 c-125 345 -238 651 -251 680 -34 76 -75 124 -136 158 l-53 29 -392
3 -393 3 0 -146z m-1509 -1669 c191 -34 382 -162 487 -325 45 -69 89 -172 98
-231 l7 -40 -442 0 -441 0 0 -145 0 -145 441 0 442 0 -7 -40 c-17 -107 -100
-257 -194 -348 -231 -225 -571 -284 -857 -148 -165 78 -274 186 -355 351 -103
209 -105 441 -6 650 151 318 476 483 827 421z m2419 6 c0 -5 -14 -21 -30 -37
-100 -96 -210 -311 -240 -470 -8 -38 -18 -76 -23 -82 -7 -10 -86 -13 -333 -13
-301 0 -324 1 -333 18 -5 10 -52 135 -104 278 -53 142 -100 271 -106 287 l-11
27 590 0 c325 0 590 -4 590 -8z"/>
<path d="M437 3554 c-4 -4 -7 -76 -7 -161 l0 -153 155 0 156 0 -3 158 -3 157
-146 3 c-80 1 -148 -1 -152 -4z"/>
<path d="M1192 3552 c-9 -7 -12 -45 -10 -158 l3 -149 158 -3 157 -3 0 155 c0
131 -2 155 -16 160 -23 9 -277 7 -292 -2z"/>
<path d="M1947 3554 c-4 -4 -7 -76 -7 -161 l0 -153 155 0 156 0 -3 158 -3 157
-146 3 c-80 1 -148 -1 -152 -4z"/>
<path d="M437 3174 c-4 -4 -7 -74 -7 -156 l0 -148 155 0 156 0 -3 153 -3 152
-146 3 c-80 1 -148 -1 -152 -4z"/>
<path d="M430 2645 l0 -155 155 0 155 0 0 155 0 155 -155 0 -155 0 0 -155z"/>
<path d="M430 2271 l0 -150 151 -3 c83 -2 153 -1 155 1 2 2 4 71 4 153 l0 148
-155 0 -155 0 0 -149z"/>
</g>
</svg>
